<svg viewBox="0 0 740 320" xmlns="http://www.w3.org/2000/svg" font-family="'Inter', -apple-system, sans-serif">
  <rect width="740" height="320" fill="#fff" rx="8" stroke="#e5e7eb" stroke-width="1"/>
  <rect x="0" y="0" width="740" height="40" rx="8" fill="#111827"/>
  <rect x="0" y="20" width="740" height="20" fill="#111827"/>
  <text x="40" y="26" font-size="12" font-weight="600" fill="#fff">Documents</text>
  <text x="200" y="26" font-size="12" font-weight="600" fill="#fff">MongoDB</text>
  <text x="360" y="26" font-size="12" font-weight="600" fill="#fff">MongoFlux</text>
  <text x="540" y="26" font-size="12" font-weight="600" fill="#fff">Winner</text>
  <text x="40" y="68" font-size="12" fill="#374151">100</text>
  <text x="200" y="68" font-size="12" fill="#374151">0.8 ms</text>
  <text x="360" y="68" font-size="12" fill="#374151">11.6 ms</text>
  <text x="540" y="68" font-size="12" fill="#6b7280">MongoDB</text>
  <line x1="20" y1="82" x2="720" y2="82" stroke="#f3f4f6" stroke-width="1"/>
  <text x="40" y="108" font-size="12" fill="#374151">1,000</text>
  <text x="200" y="108" font-size="12" fill="#374151">1.9 ms</text>
  <text x="360" y="108" font-size="12" fill="#374151">5.9 ms</text>
  <text x="540" y="108" font-size="12" fill="#6b7280">MongoDB</text>
  <line x1="20" y1="122" x2="720" y2="122" stroke="#f3f4f6" stroke-width="1"/>
  <text x="40" y="148" font-size="12" fill="#374151">5,000</text>
  <text x="200" y="148" font-size="12" fill="#374151">5.8 ms</text>
  <text x="360" y="148" font-size="12" fill="#374151">5.8 ms</text>
  <text x="540" y="148" font-size="12" fill="#6b7280">Tie</text>
  <line x1="20" y1="162" x2="720" y2="162" stroke="#f3f4f6" stroke-width="1"/>
  <rect x="20" y="170" width="700" height="38" rx="4" fill="#f0fdf4"/>
  <text x="40" y="194" font-size="12" font-weight="600" fill="#166534">10,000</text>
  <text x="200" y="194" font-size="12" fill="#374151">10.8 ms</text>
  <text x="360" y="194" font-size="12" font-weight="600" fill="#166534">8.9 ms</text>
  <text x="540" y="194" font-size="12" font-weight="700" fill="#166534">MongoFlux 1.2x</text>
  <rect x="20" y="212" width="700" height="38" rx="4" fill="#ecfdf5"/>
  <text x="40" y="236" font-size="12" font-weight="600" fill="#166534">50,000</text>
  <text x="200" y="236" font-size="12" fill="#374151">38.6 ms</text>
  <text x="360" y="236" font-size="12" font-weight="600" fill="#166534">4.6 ms</text>
  <text x="540" y="236" font-size="12" font-weight="700" fill="#166534">MongoFlux 8.4x</text>
  <rect x="20" y="254" width="700" height="38" rx="4" fill="#dcfce7"/>
  <text x="40" y="278" font-size="12" font-weight="600" fill="#166534">100,000</text>
  <text x="200" y="278" font-size="12" fill="#374151">61.9 ms</text>
  <text x="360" y="278" font-size="12" font-weight="600" fill="#166534">10.2 ms</text>
  <text x="540" y="278" font-size="12" font-weight="700" fill="#166534">MongoFlux 6.1x</text>
  <line x1="30" y1="165" x2="30" y2="295" stroke="#16a34a" stroke-width="2" stroke-dasharray="4,3"/>
  <text x="32" y="310" font-size="10" fill="#16a34a" font-weight="600">↑ crossover ~5-10K docs</text>
</svg>