<svg viewBox="0 0 740 340" xmlns="http://www.w3.org/2000/svg" font-family="'Inter', -apple-system, sans-serif">
  <rect width="740" height="340" fill="#fff" rx="8" stroke="#e5e7eb" stroke-width="1"/>
  <text x="370" y="24" text-anchor="middle" font-size="13" font-weight="700" fill="#111827">MongoDB vs ClickHouse — Latency at 1M Documents (ms)</text>

  <!-- Y axis -->
  <line x1="80" y1="45" x2="80" y2="280" stroke="#e5e7eb" stroke-width="1"/>
  <text x="72" y="55" text-anchor="end" font-size="9" fill="#9ca3af">2000</text>
  <line x1="78" y1="52" x2="710" y2="52" stroke="#f3f4f6" stroke-width="0.5"/>
  <text x="72" y="109" text-anchor="end" font-size="9" fill="#9ca3af">1500</text>
  <line x1="78" y1="106" x2="710" y2="106" stroke="#f3f4f6" stroke-width="0.5"/>
  <text x="72" y="163" text-anchor="end" font-size="9" fill="#9ca3af">1000</text>
  <line x1="78" y1="160" x2="710" y2="160" stroke="#f3f4f6" stroke-width="0.5"/>
  <text x="72" y="217" text-anchor="end" font-size="9" fill="#9ca3af">500</text>
  <line x1="78" y1="214" x2="710" y2="214" stroke="#f3f4f6" stroke-width="0.5"/>
  <text x="72" y="283" text-anchor="end" font-size="9" fill="#9ca3af">0</text>
  <line x1="78" y1="280" x2="710" y2="280" stroke="#e5e7eb" stroke-width="1"/>

  <!-- Bars: MongoDB (red) vs ClickHouse (green) -->
  <!-- Count by status: Mongo 547, CH 5.1 -->
  <rect x="100" y="217" width="36" height="63" rx="3" fill="#fca5a5"/>
  <rect x="140" y="279" width="36" height="1" rx="3" fill="#86efac"/>
  <text x="138" y="296" text-anchor="middle" font-size="8" fill="#374151">Count</text>
  <text x="118" y="212" text-anchor="middle" font-size="8" fill="#dc2626">547</text>

  <!-- Avg by region: Mongo 873, CH 8.4 -->
  <rect x="200" y="180" width="36" height="100" rx="3" fill="#fca5a5"/>
  <rect x="240" y="279" width="36" height="1" rx="3" fill="#86efac"/>
  <text x="238" y="296" text-anchor="middle" font-size="8" fill="#374151">Avg</text>
  <text x="218" y="175" text-anchor="middle" font-size="8" fill="#dc2626">873</text>

  <!-- Top 10: Mongo 1184, CH 12.6 -->
  <rect x="300" y="144" width="36" height="136" rx="3" fill="#fca5a5"/>
  <rect x="340" y="279" width="36" height="1" rx="3" fill="#86efac"/>
  <text x="338" y="296" text-anchor="middle" font-size="8" fill="#374151">Top 10</text>
  <text x="318" y="139" text-anchor="middle" font-size="8" fill="#dc2626">1184</text>

  <!-- Date range: Mongo 2069, CH 7 -->
  <rect x="400" y="43" width="36" height="237" rx="3" fill="#fca5a5"/>
  <rect x="440" y="279" width="36" height="1" rx="3" fill="#86efac"/>
  <text x="438" y="296" text-anchor="middle" font-size="8" fill="#374151">Date</text>
  <text x="418" y="38" text-anchor="middle" font-size="8" fill="#dc2626">2069</text>

  <!-- Full count: Mongo 257, CH 3 -->
  <rect x="500" y="250" width="36" height="30" rx="3" fill="#fca5a5"/>
  <rect x="540" y="279" width="36" height="1" rx="3" fill="#86efac"/>
  <text x="538" y="296" text-anchor="middle" font-size="8" fill="#374151">Full</text>
  <text x="518" y="245" text-anchor="middle" font-size="8" fill="#dc2626">257</text>

  <!-- 2D GROUP BY: Mongo 691, CH 10.1 -->
  <rect x="600" y="201" width="36" height="79" rx="3" fill="#fca5a5"/>
  <rect x="640" y="279" width="36" height="1" rx="3" fill="#86efac"/>
  <text x="638" y="296" text-anchor="middle" font-size="8" fill="#374151">2D Grp</text>
  <text x="618" y="196" text-anchor="middle" font-size="8" fill="#dc2626">691</text>

  <!-- Legend -->
  <rect x="260" y="312" width="12" height="12" rx="2" fill="#fca5a5"/>
  <text x="278" y="322" font-size="10" fill="#374151">MongoDB (ms)</text>
  <rect x="380" y="312" width="12" height="12" rx="2" fill="#86efac"/>
  <text x="398" y="322" font-size="10" fill="#374151">ClickHouse (ms) — too small to see at this scale</text>
</svg>